<svg width="1443" height="445" viewBox="0 0 1443 445" fill="none" xmlns="http://www.w3.org/2000/svg">
<g clip-path="url(#clip0_2_67)">
<rect width="1443" height="445" fill="white"/>
<g opacity="0.3">
<g filter="url(#filter0_f_2_67)">
<mask id="mask0_2_67" style="mask-type:alpha" maskUnits="userSpaceOnUse" x="-30" y="293" width="390" height="156">
<rect x="-30" y="293.407" width="389.176" height="154.773" fill="#FAFAFA"/>
</mask>
<g mask="url(#mask0_2_67)">
<g filter="url(#filter1_b_2_67)">
<circle cx="164.589" cy="484.63" r="174.306" transform="rotate(-141.214 164.589 484.63)" fill="url(#paint0_linear_2_67)" fill-opacity="0.4"/>
</g>
</g>
</g>
<mask id="mask1_2_67" style="mask-type:alpha" maskUnits="userSpaceOnUse" x="423" y="223" width="940" height="232">
<rect x="423.935" y="223.528" width="938.39" height="231.179" fill="#FAFAFA"/>
</mask>
<g mask="url(#mask1_2_67)">
<path d="M1372.62 452.258C1270.98 336.387 1055.86 314.508 927.831 430.937C836.209 514.254 543.497 598.159 316.67 515.716" stroke="#B2CDFF" stroke-width="3" stroke-linecap="round" stroke-dasharray="6 6"/>
<path d="M1378.11 376.644C1250.19 283.745 1034.59 304.638 938.226 443.137C869.266 542.247 731.936 626.922 489.94 591.135" stroke="#B2CDFF" stroke-width="3" stroke-linecap="round" stroke-dasharray="6 6"/>
</g>
<g filter="url(#filter2_f_2_67)">
<mask id="mask2_2_67" style="mask-type:alpha" maskUnits="userSpaceOnUse" x="987" y="-5" width="459" height="454">
<rect x="987.204" y="-5" width="458.699" height="453.659" fill="#FAFAFA"/>
</mask>
<g mask="url(#mask2_2_67)">
<ellipse cx="1309.03" cy="247.93" rx="314.519" ry="321.29" fill="url(#paint1_linear_2_67)"/>
</g>
</g>
<mask id="mask3_2_67" style="mask-type:alpha" maskUnits="userSpaceOnUse" x="-4" y="-5" width="401" height="410">
<rect x="-4" y="-5" width="400.391" height="409.364" fill="#FAFAFA"/>
</mask>
<g mask="url(#mask3_2_67)">
<g filter="url(#filter3_f_2_67)">
<circle cx="138.998" cy="-56.0301" r="241.693" fill="url(#paint2_linear_2_67)"/>
</g>
</g>
<path d="M463.004 70.9417C466.51 67.295 472.635 70.2656 471.941 75.2767V75.2767C471.631 77.5178 472.8 79.7036 474.835 80.6909V80.6909C479.387 82.8987 478.454 89.6411 473.474 90.5304V90.5304C471.247 90.9281 469.529 92.7147 469.219 94.9558V94.9558C468.526 99.9669 461.826 101.163 459.441 96.7019V96.7019C458.374 94.7067 456.144 93.625 453.917 94.0227V94.0227C448.937 94.912 445.729 88.9091 449.235 85.2624V85.2624C450.803 83.6315 451.142 81.1765 450.076 79.1812V79.1812C447.691 74.7197 452.409 69.8131 456.961 72.0209V72.0209C458.996 73.0082 461.436 72.5725 463.004 70.9417V70.9417Z" fill="#FFCE22"/>
<path d="M279.467 359.349C278.754 356.011 282.729 353.709 285.269 355.991V355.991C286.405 357.011 288.068 357.184 289.39 356.419V356.419C292.345 354.709 295.762 357.779 294.377 360.899V360.899C293.757 362.295 294.107 363.93 295.243 364.951V364.951C297.782 367.232 295.919 371.431 292.523 371.078V371.078C291.004 370.92 289.557 371.758 288.937 373.153V373.153C287.552 376.274 282.983 375.799 282.27 372.46V372.46C281.951 370.967 280.706 369.849 279.188 369.691V369.691C275.792 369.338 274.832 364.846 277.787 363.136V363.136C279.108 362.371 279.786 360.842 279.467 359.349V359.349Z" fill="#337AFF"/>
<path d="M838.658 385.069C837.944 381.73 841.92 379.429 844.459 381.711V381.711C845.595 382.731 847.259 382.904 848.58 382.139V382.139C851.535 380.429 854.952 383.498 853.567 386.619V386.619C852.948 388.014 853.297 389.65 854.433 390.67V390.67C856.973 392.952 855.109 397.151 851.713 396.798V396.798C850.195 396.64 848.747 397.478 848.128 398.873V398.873C846.743 401.994 842.174 401.519 841.46 398.18V398.18C841.141 396.687 839.897 395.569 838.378 395.411V395.411C834.982 395.058 834.022 390.566 836.977 388.856V388.856C838.298 388.091 838.977 386.562 838.658 385.069V385.069Z" fill="#337AFF"/>
<path d="M1427.31 152.911C1431.64 151.035 1435.84 155.797 1433.44 159.86V159.86C1432.37 161.676 1432.59 163.978 1433.98 165.561V165.561C1437.11 169.099 1433.88 174.566 1429.27 173.538V173.538C1427.21 173.078 1425.09 173.997 1424.02 175.814V175.814C1421.61 179.876 1415.42 178.493 1414.97 173.795V173.795C1414.77 171.694 1413.24 169.96 1411.18 169.501V169.501C1406.58 168.473 1405.98 162.152 1410.31 160.276V160.276C1412.25 159.437 1413.42 157.447 1413.22 155.346V155.346C1412.78 150.648 1418.6 148.125 1421.72 151.663V151.663C1423.12 153.246 1425.38 153.75 1427.31 152.911V152.911Z" fill="#337AFF"/>
<path d="M270.822 330.196C270.333 327.908 273.057 326.331 274.797 327.895V327.895C275.575 328.594 276.715 328.712 277.62 328.188V328.188C279.645 327.016 281.986 329.12 281.037 331.258V331.258C280.613 332.214 280.852 333.335 281.631 334.034V334.034C283.371 335.597 282.094 338.474 279.767 338.232V338.232C278.727 338.124 277.735 338.698 277.31 339.654V339.654C276.361 341.792 273.231 341.467 272.742 339.179V339.179C272.523 338.156 271.67 337.39 270.63 337.282V337.282C268.303 337.04 267.645 333.962 269.67 332.79V332.79C270.575 332.266 271.04 331.219 270.822 330.196V330.196Z" fill="#FFCE22"/>
<path d="M1315.29 96.3297C1314.91 93.744 1318.06 92.1812 1319.89 94.0491V94.0491C1320.7 94.8845 1321.97 95.0984 1323.01 94.579V94.579C1325.35 93.4175 1327.81 95.9308 1326.6 98.2466V98.2466C1326.06 99.2823 1326.25 100.549 1327.07 101.384V101.384C1328.89 103.252 1327.26 106.368 1324.69 105.932V105.932C1323.53 105.737 1322.39 106.306 1321.85 107.341V107.341C1320.63 109.657 1317.17 109.07 1316.79 106.484V106.484C1316.62 105.328 1315.72 104.412 1314.57 104.217V104.217C1311.99 103.781 1311.48 100.302 1313.82 99.1401V99.1401C1314.87 98.6207 1315.46 97.4861 1315.29 96.3297V96.3297Z" fill="#FFCE22"/>
<path d="M1263.26 150.691C1267.01 148.841 1270.93 152.867 1268.99 156.566V156.566C1268.12 158.221 1268.42 160.247 1269.72 161.585V161.585C1272.64 164.577 1270.02 169.555 1265.9 168.849V168.849C1264.06 168.533 1262.23 169.44 1261.36 171.094V171.094C1259.41 174.794 1253.87 173.844 1253.27 169.708V169.708C1253 167.859 1251.57 166.393 1249.73 166.077V166.077C1245.61 165.372 1244.8 159.807 1248.55 157.957V157.957C1250.22 157.13 1251.17 155.317 1250.91 153.468V153.468C1250.3 149.332 1255.35 146.843 1258.26 149.835V149.835C1259.57 151.173 1261.59 151.519 1263.26 150.691V150.691Z" fill="white"/>
<mask id="mask4_2_67" style="mask-type:alpha" maskUnits="userSpaceOnUse" x="870" y="-5" width="374" height="199">
<rect x="870.26" y="-5" width="372.87" height="198.864" fill="#FAFAFA"/>
</mask>
<g mask="url(#mask4_2_67)">
<g filter="url(#filter4_bf_2_67)">
<circle cx="1058.9" cy="32.0019" r="152.741" transform="rotate(-141.214 1058.9 32.0019)" fill="url(#paint3_linear_2_67)" fill-opacity="0.4"/>
</g>
</g>
</g>
<path d="M165.992 256.078C165.648 253.745 168.491 252.334 170.141 254.02V254.02C170.878 254.774 172.018 254.967 172.963 254.498V254.498C175.075 253.45 177.295 255.718 176.202 257.808V257.808C175.713 258.742 175.881 259.885 176.619 260.639V260.639C178.269 262.325 176.798 265.136 174.472 264.742V264.742C173.432 264.566 172.397 265.08 171.908 266.014V266.014C170.815 268.104 167.686 267.574 167.343 265.241V265.241C167.189 264.197 166.381 263.371 165.341 263.195V263.195C163.015 262.801 162.553 259.662 164.665 258.614V258.614C165.61 258.145 166.146 257.121 165.992 256.078V256.078Z" fill="#FFCE22"/>
<path d="M1141.21 312.216C1143.28 310.1 1146.84 311.864 1146.41 314.79V314.79C1146.22 316.098 1146.9 317.381 1148.08 317.968V317.968C1150.73 319.279 1150.16 323.215 1147.24 323.712V323.712C1145.94 323.935 1144.92 324.971 1144.73 326.28V326.28C1144.31 329.206 1140.38 329.874 1139.01 327.256V327.256C1138.4 326.085 1137.1 325.443 1135.79 325.665V325.665C1132.88 326.162 1131.03 322.639 1133.1 320.523V320.523C1134.02 319.577 1134.23 318.144 1133.62 316.973V316.973C1132.24 314.354 1135.02 311.508 1137.67 312.819V312.819C1138.86 313.405 1140.29 313.162 1141.21 312.216V312.216Z" fill="#FFCE22"/>
</g>
<defs>
<filter id="filter0_f_2_67" x="-13.7231" y="306.318" width="356.624" height="145.862" filterUnits="userSpaceOnUse" color-interpolation-filters="sRGB">
<feFlood flood-opacity="0" result="BackgroundImageFix"/>
<feBlend mode="normal" in="SourceGraphic" in2="BackgroundImageFix" result="shape"/>
<feGaussianBlur stdDeviation="2" result="effect1_foregroundBlur_2_67"/>
</filter>
<filter id="filter1_b_2_67" x="-19.7231" y="300.318" width="368.624" height="368.624" filterUnits="userSpaceOnUse" color-interpolation-filters="sRGB">
<feFlood flood-opacity="0" result="BackgroundImageFix"/>
<feGaussianBlur in="BackgroundImageFix" stdDeviation="5"/>
<feComposite in2="SourceAlpha" operator="in" result="effect1_backgroundBlur_2_67"/>
<feBlend mode="normal" in="SourceGraphic" in2="effect1_backgroundBlur_2_67" result="shape"/>
</filter>
<filter id="filter2_f_2_67" x="990.507" y="-9" width="459.396" height="461.659" filterUnits="userSpaceOnUse" color-interpolation-filters="sRGB">
<feFlood flood-opacity="0" result="BackgroundImageFix"/>
<feBlend mode="normal" in="SourceGraphic" in2="BackgroundImageFix" result="shape"/>
<feGaussianBlur stdDeviation="2" result="effect1_foregroundBlur_2_67"/>
</filter>
<filter id="filter3_f_2_67" x="-106.695" y="-301.723" width="491.386" height="491.386" filterUnits="userSpaceOnUse" color-interpolation-filters="sRGB">
<feFlood flood-opacity="0" result="BackgroundImageFix"/>
<feBlend mode="normal" in="SourceGraphic" in2="BackgroundImageFix" result="shape"/>
<feGaussianBlur stdDeviation="2" result="effect1_foregroundBlur_2_67"/>
</filter>
<filter id="filter4_bf_2_67" x="896.153" y="-130.744" width="325.492" height="325.492" filterUnits="userSpaceOnUse" color-interpolation-filters="sRGB">
<feFlood flood-opacity="0" result="BackgroundImageFix"/>
<feGaussianBlur in="BackgroundImageFix" stdDeviation="5"/>
<feComposite in2="SourceAlpha" operator="in" result="effect1_backgroundBlur_2_67"/>
<feBlend mode="normal" in="SourceGraphic" in2="effect1_backgroundBlur_2_67" result="shape"/>
<feGaussianBlur stdDeviation="2" result="effect2_foregroundBlur_2_67"/>
</filter>
<linearGradient id="paint0_linear_2_67" x1="339.971" y1="310.509" x2="289.857" y2="676.002" gradientUnits="userSpaceOnUse">
<stop stop-color="#337AFF"/>
<stop offset="1" stop-color="#77ECC2"/>
</linearGradient>
<linearGradient id="paint1_linear_2_67" x1="1625.49" y1="-73.0186" x2="1531.2" y2="600.137" gradientUnits="userSpaceOnUse">
<stop stop-color="#337AFF"/>
<stop offset="1" stop-color="#77ECC2"/>
</linearGradient>
<linearGradient id="paint2_linear_2_67" x1="382.182" y1="-297.466" x2="312.695" y2="209.327" gradientUnits="userSpaceOnUse">
<stop stop-color="#337AFF"/>
<stop offset="1" stop-color="#77ECC2"/>
</linearGradient>
<linearGradient id="paint3_linear_2_67" x1="1212.58" y1="-120.577" x2="1168.67" y2="199.698" gradientUnits="userSpaceOnUse">
<stop stop-color="#337AFF"/>
<stop offset="1" stop-color="#77ECC2"/>
</linearGradient>
<clipPath id="clip0_2_67">
<rect width="1443" height="445" fill="white"/>
</clipPath>
</defs>
</svg>
