<svg width="32" height="33" viewBox="0 0 32 33" fill="none" xmlns="http://www.w3.org/2000/svg">
<g clip-path="url(#clip0_103_1422)">
<path d="M15.9976 32.4748C24.8274 32.4748 31.9853 25.3169 31.9853 16.4871C31.9853 7.65724 24.8274 0.499268 15.9976 0.499268C7.16774 0.499268 0.00976562 7.65724 0.00976562 16.4871C0.00976562 25.3169 7.16774 32.4748 15.9976 32.4748Z" fill="#3A5A98"/>
<path d="M27.3074 5.20544C33.551 11.4491 33.5513 21.5724 27.3071 27.8165C21.0632 34.0601 10.9397 34.0601 4.69604 27.8165L27.3074 5.20544Z" fill="#345387"/>
<path d="M31.8819 18.2878L20.3168 6.72241L14.3122 12.727L14.6699 13.0847L11.2512 16.5031L14.0494 19.3013L13.6814 19.6692L16.7108 22.6986L13.2183 26.191L19.1845 32.1572C25.9124 30.7957 31.1056 25.21 31.8819 18.2878Z" fill="#2E4D72"/>
<path d="M13.2024 10.5479C13.2024 11.0384 13.2024 13.2292 13.2024 13.2292H11.238V16.508H13.2024V26.2506H17.2376V16.508H19.9453C19.9453 16.508 20.199 14.9355 20.3218 13.2168C19.9693 13.2168 17.2529 13.2168 17.2529 13.2168C17.2529 13.2168 17.2529 11.3091 17.2529 10.9748C17.2529 10.64 17.6927 10.1894 18.1277 10.1894C18.5619 10.1894 19.4781 10.1894 20.3263 10.1894C20.3263 9.74253 20.3263 8.20033 20.3263 6.776C19.1937 6.776 17.9053 6.776 17.337 6.776C13.1025 6.7758 13.2024 10.0577 13.2024 10.5479Z" fill="white"/>
</g>
<defs>
<clipPath id="clip0_103_1422">
<rect width="32" height="32" fill="white" transform="translate(0 0.499268)"/>
</clipPath>
</defs>
</svg>
