<svg width="203" height="166" viewBox="0 0 203 166" fill="none" xmlns="http://www.w3.org/2000/svg">
<circle cx="100.711" cy="83" r="83" fill="#FFE4C5"/>
<circle cx="57.5" cy="103.367" r="20.5" fill="#FF9C27"/>
<circle cx="145.5" cy="103.367" r="20.5" fill="#FF9C27"/>
<ellipse cx="101" cy="94.8672" rx="52" ry="48" fill="#FFBA68"/>
<path d="M80.1037 31.6478C95.4848 37.8672 105.985 19.8672 133.604 41.1478C141.106 40.2175 133.604 13.148 144.602 28.648C153.401 41.048 145.666 44.3672 141 43.3672C159.5 55.8672 170 96.3672 147.602 92.6479C120.433 88.1365 130.602 52.148 123.602 61.148C116.602 70.148 60.614 97.3086 49.102 92.6479C40.9983 89.3672 40.9983 77.8672 49.102 74.648C48.1026 73.4813 42.5983 74.3672 40.9983 66.3672C39.3983 58.3672 57.4371 44.4812 65.1037 41.1478C65.1037 32.6478 63.8378 25.0706 80.1037 31.6478Z" fill="#222222"/>
<mask id="mask0_103_1942" style="mask-type:alpha" maskUnits="userSpaceOnUse" x="49" y="46" width="104" height="97">
<ellipse cx="101" cy="94.8672" rx="52" ry="48" fill="#FFAB49"/>
</mask>
<g mask="url(#mask0_103_1942)">
<circle cx="66" cy="114.867" r="20" fill="#FF9A24"/>
<circle cx="138" cy="114.867" r="20" fill="#FF9A24"/>
</g>
<circle cx="84" cy="98.8672" r="4" fill="black"/>
<circle cx="118" cy="98.8672" r="4" fill="black"/>
<circle cx="101.5" cy="106.367" r="1.5" fill="black"/>
<path d="M84.7227 93.8672C83.6472 94.4442 81.617 96.1035 82.1001 98.1242" stroke="black" stroke-width="3" stroke-linecap="round"/>
<path d="M87.6992 86.8398C85.3295 86.206 80.0722 85.8448 78.0006 89.4702" stroke="black" stroke-width="3" stroke-linecap="round"/>
<path d="M115 86.8398C117.37 86.206 122.627 85.8448 124.699 89.4702" stroke="black" stroke-width="3" stroke-linecap="round"/>
<path d="M118.723 93.8672C117.647 94.4442 115.617 96.1035 116.1 98.1242" stroke="black" stroke-width="3" stroke-linecap="round"/>
<path d="M81 110.867C88.1667 115.367 106.4 121.667 122 110.867" stroke="#A75A00" stroke-width="3" stroke-linecap="round"/>
<path fill-rule="evenodd" clip-rule="evenodd" d="M25.4492 92.446C22.6382 93.5971 21.2926 96.809 22.4437 99.62L31.8303 122.541L31.8296 122.542L24.7365 105.221C23.5854 102.41 20.3735 101.064 17.5625 102.215C14.7515 103.367 13.4059 106.579 14.557 109.39L17.1095 115.623C15.901 112.927 12.7619 111.658 10.0078 112.786C7.19678 113.937 5.8512 117.149 7.00234 119.96L11.4733 130.878L11.4727 130.878L15.9179 141.733C15.9401 141.787 15.9624 141.841 15.9849 141.895L16.9272 144.196C17.2731 145.04 17.805 145.752 18.4561 146.304C24.2706 154.345 35.0256 157.681 44.6142 153.754C53.246 150.22 58.4233 141.827 58.2798 133.031L64.4162 118.86C65.8158 115.628 64.1948 112.26 60.7955 111.337C57.6434 110.482 54.0691 112.03 52.45 114.837L52.1907 114.203L52.1886 114.204L45.424 97.6858C44.2729 94.8748 41.061 93.5292 38.25 94.6803C35.4681 95.8196 34.1214 98.9771 35.2096 101.767L32.6233 95.4514C31.4721 92.6404 28.2602 91.2948 25.4492 92.446Z" fill="#FFBA68"/>
<path d="M18.1367 118.132L23.4423 131.088" stroke="#FF9C27" stroke-width="3" stroke-linecap="round"/>
<path d="M37.5625 106.343L42.1101 117.448" stroke="#FF9C27" stroke-width="3" stroke-linecap="round"/>
<path d="M50.6581 121.021L47.7231 126.755C44.5699 128.046 38.7663 132.326 40.7782 139.115" stroke="#FF9C27" stroke-width="3" stroke-linecap="round"/>
<path d="M26.625 108.663L32.3095 122.544" stroke="#FF9C27" stroke-width="3" stroke-linecap="round"/>
<path d="M22.7412 133.516C25.8044 128.208 34.918 117.935 46.8665 119.304" stroke="#FF9C27" stroke-width="3" stroke-linecap="round"/>
<path fill-rule="evenodd" clip-rule="evenodd" d="M176.695 92.5358C179.506 93.6869 180.852 96.8989 179.701 99.7099L170.314 122.631L170.315 122.631L177.408 105.311C178.559 102.5 181.771 101.154 184.582 102.305C187.393 103.456 188.739 106.668 187.588 109.479L185.035 115.712C186.244 113.017 189.383 111.748 192.137 112.876C194.948 114.027 196.293 117.239 195.142 120.05L190.671 130.968L190.672 130.968L186.227 141.823C186.205 141.877 186.182 141.931 186.16 141.984L185.217 144.285C184.872 145.13 184.34 145.842 183.689 146.394C177.874 154.435 167.119 157.771 157.53 153.844C148.899 150.309 143.721 141.917 143.865 133.121L137.729 118.95C136.329 115.718 137.95 112.35 141.349 111.427C144.501 110.572 148.076 112.12 149.695 114.926L149.954 114.293L149.956 114.294L156.721 97.7756C157.872 94.9646 161.084 93.619 163.895 94.7702C166.677 95.9094 168.023 99.067 166.935 101.857L169.521 95.5412C170.673 92.7302 173.884 91.3847 176.695 92.5358Z" fill="#FFBA68"/>
<path d="M184.008 118.222L178.702 131.177" stroke="#FF9C27" stroke-width="3" stroke-linecap="round"/>
<path d="M164.582 106.433L160.035 117.538" stroke="#FF9C27" stroke-width="3" stroke-linecap="round"/>
<path d="M151.487 121.111L154.422 126.845C157.575 128.136 163.378 132.416 161.367 139.205" stroke="#FF9C27" stroke-width="3" stroke-linecap="round"/>
<path d="M175.52 108.753L169.835 122.634" stroke="#FF9C27" stroke-width="3" stroke-linecap="round"/>
<path d="M179.404 133.606C176.34 128.298 167.227 118.025 155.278 119.394" stroke="#FF9C27" stroke-width="3" stroke-linecap="round"/>
</svg>
