<svg width="226" height="169" viewBox="0 0 226 169" fill="none" xmlns="http://www.w3.org/2000/svg">
<circle cx="110" cy="86" r="83" fill="#FFE8E8"/>
<rect x="89.8672" y="56" width="111.066" height="72.0196" rx="10" transform="rotate(18.5121 89.8672 56)" fill="#FFA4A4"/>
<path d="M92.3164 70.5469L123.602 113.988C126.169 117.552 130.761 119.024 134.922 117.616L183.648 101.127" stroke="#FF7D7D" stroke-width="3" stroke-linecap="round"/>
<path d="M118.059 108.448L77.1612 118.545" stroke="#FF7D7D" stroke-width="3" stroke-linecap="round"/>
<path d="M141.097 116.162L167.669 148.85" stroke="#FF7D7D" stroke-width="3" stroke-linecap="round"/>
<rect x="18" y="55.8438" width="128" height="83" rx="10" transform="rotate(-8.46623 18 55.8438)" fill="#FFB0B0"/>
<path d="M28.1211 69.5039L83.9663 98.2798C87.8709 100.292 92.6313 99.5202 95.7005 96.3779L137.912 53.1618" stroke="#FF8989" stroke-width="3" stroke-linecap="round"/>
<path d="M74.3735 94.9715L37.6482 126.724" stroke="#FF8989" stroke-width="3" stroke-linecap="round"/>
<path d="M102.068 90.8488L146.449 110.529" stroke="#FF8989" stroke-width="3" stroke-linecap="round"/>
<rect x="99.2461" width="10" height="16" transform="rotate(19.1362 99.2461 0)" fill="#FF5959"/>
<rect x="205.469" y="143.176" width="10" height="16" transform="rotate(153.459 205.469 143.176)" fill="#FFCE22"/>
<rect y="63.3242" width="10" height="16" transform="rotate(-47.0938 0 63.3242)" fill="#FF5959"/>
<rect x="9" y="37.3711" width="5.74037" height="9.18459" transform="rotate(-3.71108 9 37.3711)" fill="#FFCE22"/>
<path d="M215.986 45.5138C208.997 58.452 184.473 71.4656 185.354 58.6897C186.309 44.8296 214.046 58.0685 184.372 84.1562" stroke="#FF8989" stroke-width="3" stroke-linecap="round"/>
<path d="M18.0087 23.3275C25.7559 28.7818 43.6377 29.2431 39.46 22.1279C34.9278 14.4089 22.7339 30.0108 47.3408 36.5331" stroke="#FF8989" stroke-width="3" stroke-linecap="round"/>
</svg>
