<svg width="202" height="166" viewBox="0 0 202 166" fill="none" xmlns="http://www.w3.org/2000/svg">
<circle cx="102" cy="83" r="83" fill="#D0E1FF"/>
<rect x="4.3" y="22.3" width="131.35" height="99.9" rx="12.95" fill="#444444" stroke="#E0E0E0" stroke-width="7.4"/>
<path d="M15.145 47.25V40.71H17.5388C18.9299 40.71 19.6074 41.4597 19.6074 42.4263C19.6074 43.2393 19.1106 43.6548 18.5054 43.8083V43.8716C19.1558 43.9077 19.8604 44.4768 19.8604 45.4885C19.8604 46.4912 19.1738 47.25 17.6472 47.25H15.145ZM17.5569 46.4009C18.4963 46.4009 18.8757 45.9854 18.8757 45.4434C18.8757 44.8201 18.3789 44.3142 17.593 44.3142H16.1387V46.4009H17.5569ZM17.4575 43.5374C18.1169 43.5374 18.6318 43.1309 18.6318 42.5076C18.6318 41.9656 18.2615 41.5591 17.4756 41.5591H16.1387V43.5374H17.4575ZM20.4341 45.8679C20.4341 44.7478 21.3826 44.4587 22.2679 44.3955C22.5931 44.3729 23.3293 44.3323 23.5596 44.3232L23.5506 43.9348C23.5506 43.3838 23.2164 43.0586 22.5569 43.0586C21.9879 43.0586 21.6446 43.3206 21.5452 43.6819H20.5877C20.678 42.8689 21.4368 42.2817 22.5931 42.2817C23.3699 42.2817 24.5171 42.5708 24.5171 43.989V47.25H23.5777V46.5815H23.5416C23.3519 46.9519 22.9002 47.3584 22.0872 47.3584C21.1568 47.3584 20.4341 46.8254 20.4341 45.8679ZM21.3736 45.877C21.3736 46.3467 21.762 46.5906 22.304 46.5906C23.0899 46.5906 23.5596 46.0667 23.5596 45.4795V45.0278C23.3338 45.0459 22.6292 45.0956 22.4034 45.1091C21.7711 45.1543 21.3736 45.3892 21.3736 45.877ZM27.3312 47.3494C26.1478 47.3494 25.2806 46.3918 25.2806 44.811C25.2806 43.2122 26.1569 42.2817 27.3402 42.2817C28.2526 42.2817 28.5868 42.8328 28.7584 43.1399H28.8036V40.71H29.7701V47.25H28.8307V46.4822H28.7584C28.5778 46.8074 28.2255 47.3494 27.3312 47.3494ZM27.548 46.5273C28.37 46.5273 28.8307 45.8228 28.8307 44.793C28.8307 43.7722 28.379 43.1038 27.548 43.1038C26.6898 43.1038 26.2653 43.8264 26.2653 44.793C26.2653 45.7776 26.7079 46.5273 27.548 46.5273ZM32.9003 49.1921C31.6628 49.1921 30.8498 48.6411 30.7595 47.7288H31.7441C31.8344 48.1895 32.268 48.4153 32.9094 48.4153C33.6772 48.4153 34.165 48.0901 34.165 47.3223V46.3557H34.1017C33.9301 46.6719 33.5778 47.1777 32.6745 47.1777C31.5182 47.1777 30.624 46.3105 30.624 44.7478C30.624 43.1851 31.5002 42.2817 32.6835 42.2817C33.5959 42.2817 33.9301 42.8328 34.1108 43.1399H34.174V42.345H35.1135V47.3584C35.1135 48.614 34.165 49.1921 32.9003 49.1921ZM32.8913 46.3828C33.7133 46.3828 34.174 45.7776 34.174 44.7659C34.174 43.7722 33.7223 43.1038 32.8913 43.1038C32.0331 43.1038 31.6086 43.8264 31.6086 44.7659C31.6086 45.7234 32.0512 46.3828 32.8913 46.3828ZM38.2165 47.3494C36.7712 47.3494 35.886 46.3557 35.886 44.8291C35.886 43.3206 36.7893 42.2817 38.1533 42.2817C39.2734 42.2817 40.3303 42.9773 40.3303 44.7478V45.0911H36.8435C36.8706 46.0215 37.4171 46.5544 38.2256 46.5544C38.7766 46.5544 39.1289 46.3196 39.2915 46.0215H40.2671C40.0503 46.8164 39.2915 47.3494 38.2165 47.3494ZM36.8525 44.3684H39.3818C39.3818 43.6187 38.9031 43.0767 38.1623 43.0767C37.39 43.0767 36.8887 43.6729 36.8525 44.3684ZM41.3016 44.7568C41.3106 43.0586 41.7894 41.6404 42.6385 40.4299H43.5237C42.9004 41.3242 42.3042 43.1489 42.3042 44.7568C42.3042 46.3738 42.9004 48.1895 43.5237 49.0928H42.6385C41.7894 47.8823 41.3106 46.4641 41.3016 44.7568ZM15.145 58.25V51.71H16.1025V54.1399H16.1567C16.3374 53.8328 16.6626 53.2817 17.5659 53.2817C18.7493 53.2817 19.6345 54.2122 19.6345 55.811C19.6345 57.3918 18.7673 58.3494 17.575 58.3494C16.6807 58.3494 16.3374 57.8074 16.1567 57.4822H16.0845V58.25H15.145ZM16.0845 55.793C16.0845 56.8228 16.5452 57.5273 17.3582 57.5273C18.2073 57.5273 18.6499 56.7776 18.6499 55.793C18.6499 54.8264 18.2163 54.1038 17.3582 54.1038C16.5361 54.1038 16.0845 54.7722 16.0845 55.793ZM20.1812 56.8679C20.1812 55.7478 21.1297 55.4587 22.015 55.3955C22.3401 55.3729 23.0764 55.3323 23.3067 55.3232L23.2977 54.9348C23.2977 54.3838 22.9634 54.0586 22.304 54.0586C21.7349 54.0586 21.3917 54.3206 21.2923 54.6819H20.3348C20.4251 53.8689 21.1839 53.2817 22.3401 53.2817C23.117 53.2817 24.2642 53.5708 24.2642 54.989V58.25H23.3248V57.5815H23.2886C23.0989 57.9519 22.6473 58.3584 21.8343 58.3584C20.9039 58.3584 20.1812 57.8254 20.1812 56.8679ZM21.1207 56.877C21.1207 57.3467 21.5091 57.5906 22.0511 57.5906C22.837 57.5906 23.3067 57.0667 23.3067 56.4795V56.0278C23.0809 56.0459 22.3763 56.0956 22.1504 56.1091C21.5181 56.1543 21.1207 56.3892 21.1207 56.877ZM27.0782 58.3494C25.8949 58.3494 25.0277 57.3918 25.0277 55.811C25.0277 54.2122 25.9039 53.2817 27.0873 53.2817C27.9996 53.2817 28.3339 53.8328 28.5055 54.1399H28.5507V51.71H29.5172V58.25H28.5778V57.4822H28.5055C28.3248 57.8074 27.9725 58.3494 27.0782 58.3494ZM27.295 57.5273C28.1171 57.5273 28.5778 56.8228 28.5778 55.793C28.5778 54.7722 28.1261 54.1038 27.295 54.1038C26.4369 54.1038 26.0123 54.8264 26.0123 55.793C26.0123 56.7776 26.455 57.5273 27.295 57.5273ZM32.6474 60.1921C31.4098 60.1921 30.5969 59.6411 30.5065 58.7288H31.4911C31.5815 59.1895 32.0151 59.4153 32.6564 59.4153C33.4242 59.4153 33.912 59.0901 33.912 58.3223V57.3557H33.8488C33.6772 57.6719 33.3249 58.1777 32.4216 58.1777C31.2653 58.1777 30.371 57.3105 30.371 55.7478C30.371 54.1851 31.2472 53.2817 32.4306 53.2817C33.3429 53.2817 33.6772 53.8328 33.8578 54.1399H33.9211V53.345H34.8605V58.3584C34.8605 59.614 33.912 60.1921 32.6474 60.1921ZM32.6384 57.3828C33.4604 57.3828 33.9211 56.7776 33.9211 55.7659C33.9211 54.7722 33.4694 54.1038 32.6384 54.1038C31.7802 54.1038 31.3556 54.8264 31.3556 55.7659C31.3556 56.7234 31.7983 57.3828 32.6384 57.3828ZM37.9636 58.3494C36.5183 58.3494 35.633 57.3557 35.633 55.8291C35.633 54.3206 36.5364 53.2817 37.9004 53.2817C39.0205 53.2817 40.0774 53.9773 40.0774 55.7478V56.0911H36.5906C36.6177 57.0215 37.1642 57.5544 37.9726 57.5544C38.5237 57.5544 38.876 57.3196 39.0386 57.0215H40.0142C39.7974 57.8164 39.0386 58.3494 37.9636 58.3494ZM36.5996 55.3684H39.1289C39.1289 54.6187 38.6501 54.0767 37.9094 54.0767C37.1371 54.0767 36.6357 54.6729 36.5996 55.3684ZM45.3575 53.8418C45.1949 53.0017 44.4993 52.532 43.6683 52.532C42.5391 52.532 41.699 53.3992 41.699 54.98C41.699 56.5698 42.5481 57.428 43.6683 57.428C44.4903 57.428 45.1858 56.9673 45.3575 56.1362L46.3602 56.1453C46.1524 57.437 45.0955 58.3403 43.6592 58.3403C41.952 58.3403 40.7144 57.0667 40.7144 54.98C40.7144 52.8843 41.961 51.6196 43.6592 51.6196C45.0413 51.6196 46.1343 52.4326 46.3602 53.8418H45.3575ZM49.2464 58.3494C47.8553 58.3494 46.952 57.3376 46.952 55.8201C46.952 54.2935 47.8553 53.2817 49.2464 53.2817C50.6285 53.2817 51.5318 54.2935 51.5318 55.8201C51.5318 57.3376 50.6285 58.3494 49.2464 58.3494ZM49.2464 57.5454C50.1317 57.5454 50.5563 56.7595 50.5563 55.8201C50.5563 54.8806 50.1317 54.0767 49.2464 54.0767C48.3431 54.0767 47.9186 54.8806 47.9186 55.8201C47.9186 56.7595 48.3431 57.5454 49.2464 57.5454ZM53.2619 55.3413V58.25H52.2953V53.345H53.2258V54.1489H53.28C53.5148 53.625 53.9936 53.2817 54.7253 53.2817C55.737 53.2817 56.3964 53.9141 56.3964 55.1335V58.25H55.4389V55.251C55.4389 54.5374 55.0505 54.1128 54.4001 54.1128C53.7406 54.1128 53.2619 54.5554 53.2619 55.3413ZM59.6802 53.345V54.1128H58.6775V56.8047C58.6775 57.3557 58.9575 57.4551 59.2646 57.4641C59.4001 57.4641 59.6169 57.446 59.7524 57.437V58.2771C59.6169 58.2952 59.4092 58.3132 59.1472 58.3132C58.3884 58.3132 57.7109 57.8977 57.72 57.0034V54.1128H56.9973V53.345H57.72V52.1707H58.6775V53.345H59.6802ZM62.4942 58.3494C61.0489 58.3494 60.1636 57.3557 60.1636 55.8291C60.1636 54.3206 61.0669 53.2817 62.4309 53.2817C63.5511 53.2817 64.6079 53.9773 64.6079 55.7478V56.0911H61.1211C61.1482 57.0215 61.6947 57.5544 62.5032 57.5544C63.0542 57.5544 63.4065 57.3196 63.5691 57.0215H64.5447C64.3279 57.8164 63.5691 58.3494 62.4942 58.3494ZM61.1302 55.3684H63.6595C63.6595 54.6187 63.1807 54.0767 62.44 54.0767C61.6676 54.0767 61.1663 54.6729 61.1302 55.3684ZM66.347 55.3413V58.25H65.3805V53.345H66.3109V54.1489H66.3651C66.6 53.625 67.0787 53.2817 67.8104 53.2817C68.8221 53.2817 69.4815 53.9141 69.4815 55.1335V58.25H68.524V55.251C68.524 54.5374 68.1356 54.1128 67.4852 54.1128C66.8258 54.1128 66.347 54.5554 66.347 55.3413ZM72.7653 53.345V54.1128H71.7626V56.8047C71.7626 57.3557 72.0426 57.4551 72.3498 57.4641C72.4853 57.4641 72.7021 57.446 72.8376 57.437V58.2771C72.7021 58.2952 72.4943 58.3132 72.2323 58.3132C71.4735 58.3132 70.7961 57.8977 70.8051 57.0034V54.1128H70.0824V53.345H70.8051V52.1707H71.7626V53.345H72.7653ZM74.1521 58.3132C73.7998 58.3132 73.5017 58.0242 73.5107 57.6719C73.5017 57.3196 73.7998 57.0305 74.1521 57.0305C74.4953 57.0305 74.7934 57.3196 74.7934 57.6719C74.7934 58.0242 74.4953 58.3132 74.1521 58.3132ZM74.1521 54.7451C73.7998 54.7451 73.5017 54.4561 73.5107 54.1038C73.5017 53.7515 73.7998 53.4624 74.1521 53.4624C74.4953 53.4624 74.7934 53.7515 74.7934 54.1038C74.7934 54.4561 74.4953 54.7451 74.1521 54.7451ZM77.6031 52.5681V51.71H82.6707V52.5681H80.6383V58.25H79.6446V52.5681H77.6031ZM84.8163 58.3494C83.371 58.3494 82.4857 57.3557 82.4857 55.8291C82.4857 54.3206 83.3891 53.2817 84.7531 53.2817C85.8732 53.2817 86.9301 53.9773 86.9301 55.7478V56.0911H83.4433C83.4704 57.0215 84.0169 57.5544 84.8253 57.5544C85.3764 57.5544 85.7287 57.3196 85.8913 57.0215H86.8668C86.65 57.8164 85.8913 58.3494 84.8163 58.3494ZM83.4523 55.3684H85.9816C85.9816 54.6187 85.5028 54.0767 84.7621 54.0767C83.9898 54.0767 83.4884 54.6729 83.4523 55.3684ZM88.353 53.345L89.4279 55.251L90.5119 53.345H91.5688L90.0422 55.793L91.5778 58.25H90.53L89.4279 56.4163L88.3349 58.25H87.278L88.7956 55.793L87.2871 53.345H88.353ZM94.5545 53.345V54.1128H93.5518V56.8047C93.5518 57.3557 93.8318 57.4551 94.1389 57.4641C94.2744 57.4641 94.4912 57.446 94.6267 57.437V58.2771C94.4912 58.2952 94.2835 58.3132 94.0215 58.3132C93.2627 58.3132 92.5852 57.8977 92.5943 57.0034V54.1128H91.8716V53.345H92.5943V52.1707H93.5518V53.345H94.5545ZM95.5076 55.7568C95.5167 54.0586 95.9954 52.6404 96.8446 51.4299H97.7298C97.1065 52.3242 96.5103 54.1489 96.5103 55.7568C96.5103 57.3738 97.1065 59.1895 97.7298 60.0928H96.8446C95.9954 58.8823 95.5167 57.4641 95.5076 55.7568ZM99.1618 51.71V54.0405H98.3668V51.71H99.1618ZM102.409 58.3403C101.054 58.3403 100.088 57.6086 100.052 56.5427H101.063C101.1 57.1208 101.669 57.4822 102.4 57.4822C103.186 57.4822 103.764 57.0486 103.764 56.4163C103.764 55.7749 103.222 55.3052 102.292 55.3052H101.732V54.4922H102.292C103.033 54.4922 103.557 54.0767 103.557 53.4534C103.557 52.8572 103.114 52.4507 102.418 52.4507C101.759 52.4507 101.181 52.812 101.154 53.4082H100.196C100.223 52.3423 101.208 51.6196 102.427 51.6196C103.71 51.6196 104.523 52.4326 104.514 53.3992C104.523 54.1399 104.062 54.6819 103.358 54.8535V54.8987C104.252 55.0251 104.767 55.6213 104.767 56.4524C104.767 57.5454 103.764 58.3403 102.409 58.3403ZM106.416 51.71V54.0405H105.621V51.71H106.416ZM109.284 55.7568C109.275 57.4641 108.796 58.8823 107.947 60.0928H107.062C107.685 59.1895 108.281 57.3738 108.281 55.7568C108.281 54.1489 107.685 52.3242 107.062 51.4299H107.947C108.796 52.6404 109.275 54.0586 109.284 55.7568ZM111.637 57.6267L110.915 60.1199H110.147L110.626 57.6267H111.637ZM17.1414 69.3494C15.7141 69.3494 14.8469 68.2925 14.8469 66.8201C14.8469 65.3206 15.7412 64.2817 17.1233 64.2817C18.2434 64.2817 19.0564 64.9412 19.1558 65.9348H18.2163C18.1169 65.4741 17.7466 65.0857 17.1414 65.0857C16.3464 65.0857 15.8135 65.7451 15.8135 66.793C15.8135 67.8679 16.3374 68.5273 17.1414 68.5273C17.6833 68.5273 18.0989 68.2292 18.2163 67.6963H19.1558C19.0474 68.6448 18.2976 69.3494 17.1414 69.3494ZM20.8497 66.3413V69.25H19.8831V62.71H20.8316V65.1489H20.8948C21.1297 64.616 21.5814 64.2817 22.3492 64.2817C23.3609 64.2817 24.0294 64.905 24.0294 66.1335V69.25H23.0628V66.251C23.0628 65.5283 22.6744 65.1128 22.024 65.1128C21.3465 65.1128 20.8497 65.5554 20.8497 66.3413ZM25.0096 69.25V64.345H25.9762V69.25H25.0096ZM25.4974 63.5862C25.1632 63.5862 24.8832 63.3333 24.8832 63.0171C24.8832 62.7009 25.1632 62.448 25.4974 62.448C25.8226 62.448 26.1027 62.7009 26.1027 63.0171C26.1027 63.3333 25.8226 63.5862 25.4974 63.5862ZM27.9321 62.71V69.25H26.9655V62.71H27.9321ZM30.7551 69.3494C29.5718 69.3494 28.7046 68.3918 28.7046 66.811C28.7046 65.2122 29.5808 64.2817 30.7642 64.2817C31.6765 64.2817 32.0107 64.8328 32.1824 65.1399H32.2275V62.71H33.1941V69.25H32.2546V68.4822H32.1824C32.0017 68.8074 31.6494 69.3494 30.7551 69.3494ZM30.9719 68.5273C31.7939 68.5273 32.2546 67.8228 32.2546 66.793C32.2546 65.7722 31.803 65.1038 30.9719 65.1038C30.1138 65.1038 29.6892 65.8264 29.6892 66.793C29.6892 67.7776 30.1318 68.5273 30.9719 68.5273ZM34.897 69.3132C34.5447 69.3132 34.2466 69.0242 34.2557 68.6719C34.2466 68.3196 34.5447 68.0305 34.897 68.0305C35.2403 68.0305 35.5384 68.3196 35.5384 68.6719C35.5384 69.0242 35.2403 69.3132 34.897 69.3132ZM34.897 65.7451C34.5447 65.7451 34.2466 65.4561 34.2557 65.1038C34.2466 64.7515 34.5447 64.4624 34.897 64.4624C35.2403 64.4624 35.5384 64.7515 35.5384 65.1038C35.5384 65.4561 35.2403 65.7451 34.897 65.7451ZM39.6669 62.71V69.25H38.6733V62.71H39.6669ZM42.8061 69.3494C41.3789 69.3494 40.5117 68.2925 40.5117 66.8201C40.5117 65.3206 41.406 64.2817 42.7881 64.2817C43.9082 64.2817 44.7212 64.9412 44.8205 65.9348H43.8811C43.7817 65.4741 43.4114 65.0857 42.8061 65.0857C42.0112 65.0857 41.4783 65.7451 41.4783 66.793C41.4783 67.8679 42.0022 68.5273 42.8061 68.5273C43.3481 68.5273 43.7637 68.2292 43.8811 67.6963H44.8205C44.7121 68.6448 43.9624 69.3494 42.8061 69.3494ZM47.6255 69.3494C46.2344 69.3494 45.3311 68.3376 45.3311 66.8201C45.3311 65.2935 46.2344 64.2817 47.6255 64.2817C49.0076 64.2817 49.9109 65.2935 49.9109 66.8201C49.9109 68.3376 49.0076 69.3494 47.6255 69.3494ZM47.6255 68.5454C48.5108 68.5454 48.9353 67.7595 48.9353 66.8201C48.9353 65.8806 48.5108 65.0767 47.6255 65.0767C46.7222 65.0767 46.2976 65.8806 46.2976 66.8201C46.2976 67.7595 46.7222 68.5454 47.6255 68.5454ZM51.641 66.3413V69.25H50.6744V64.345H51.6048V65.1489H51.659C51.8939 64.625 52.3727 64.2817 53.1043 64.2817C54.1161 64.2817 54.7755 64.9141 54.7755 66.1335V69.25H53.818V66.251C53.818 65.5374 53.4295 65.1128 52.7792 65.1128C52.1197 65.1128 51.641 65.5554 51.641 66.3413ZM55.8461 69.25V62.71H58.2399C59.631 62.71 60.3085 63.4597 60.3085 64.4263C60.3085 65.2393 59.8117 65.6548 59.2065 65.8083V65.8716C59.8568 65.9077 60.5614 66.4768 60.5614 67.4885C60.5614 68.4912 59.8749 69.25 58.3483 69.25H55.8461ZM58.258 68.4009C59.1974 68.4009 59.5768 67.9854 59.5768 67.4434C59.5768 66.8201 59.08 66.3142 58.2941 66.3142H56.8398V68.4009H58.258ZM58.1586 65.5374C58.818 65.5374 59.3329 65.1309 59.3329 64.5076C59.3329 63.9656 58.9626 63.5591 58.1767 63.5591H56.8398V65.5374H58.1586ZM64.4775 67.2085V64.345H65.435V69.25H64.4956V68.4009H64.4414C64.2155 68.9248 63.7097 69.3132 62.978 69.3132C62.0295 69.3132 61.3611 68.6809 61.3611 67.4614V64.345H62.3276V67.344C62.3276 68.0125 62.7341 68.437 63.3213 68.437C63.8542 68.437 64.4775 68.0486 64.4775 67.2085ZM68.7188 64.345V65.1128H67.7161V67.8047C67.7161 68.3557 67.9961 68.4551 68.3033 68.4641C68.4388 68.4641 68.6555 68.446 68.791 68.437V69.2771C68.6555 69.2952 68.4478 69.3132 68.1858 69.3132C67.427 69.3132 66.7495 68.8977 66.7586 68.0034V65.1128H66.0359V64.345H66.7586V63.1707H67.7161V64.345H68.7188ZM71.7677 64.345V65.1128H70.765V67.8047C70.765 68.3557 71.045 68.4551 71.3521 68.4641C71.4876 68.4641 71.7044 68.446 71.8399 68.437V69.2771C71.7044 69.2952 71.4967 69.3132 71.2347 69.3132C70.4759 69.3132 69.7984 68.8977 69.8075 68.0034V65.1128H69.0848V64.345H69.8075V63.1707H70.765V64.345H71.7677ZM74.5456 69.3494C73.1544 69.3494 72.2511 68.3376 72.2511 66.8201C72.2511 65.2935 73.1544 64.2817 74.5456 64.2817C75.9276 64.2817 76.831 65.2935 76.831 66.8201C76.831 68.3376 75.9276 69.3494 74.5456 69.3494ZM74.5456 68.5454C75.4308 68.5454 75.8554 67.7595 75.8554 66.8201C75.8554 65.8806 75.4308 65.0767 74.5456 65.0767C73.6422 65.0767 73.2177 65.8806 73.2177 66.8201C73.2177 67.7595 73.6422 68.5454 74.5456 68.5454ZM78.561 66.3413V69.25H77.5944V64.345H78.5249V65.1489H78.5791C78.8139 64.625 79.2927 64.2817 80.0244 64.2817C81.0361 64.2817 81.6955 64.9141 81.6955 66.1335V69.25H80.738V66.251C80.738 65.5374 80.3496 65.1128 79.6992 65.1128C79.0398 65.1128 78.561 65.5554 78.561 66.3413ZM82.8836 66.7568C82.8926 65.0586 83.3714 63.6404 84.2205 62.4299H85.1057C84.4824 63.3242 83.8863 65.1489 83.8863 66.7568C83.8863 68.3738 84.4824 70.1895 85.1057 71.0928H84.2205C83.3714 69.8823 82.8926 68.4641 82.8836 66.7568ZM15.0637 80.25V75.345H16.0303V80.25H15.0637ZM15.5515 74.5862C15.2173 74.5862 14.9373 74.3333 14.9373 74.0171C14.9373 73.7009 15.2173 73.448 15.5515 73.448C15.8767 73.448 16.1567 73.7009 16.1567 74.0171C16.1567 74.3333 15.8767 74.5862 15.5515 74.5862ZM19.0972 80.3494C17.67 80.3494 16.8028 79.2925 16.8028 77.8201C16.8028 76.3206 17.6971 75.2817 19.0792 75.2817C20.1993 75.2817 21.0123 75.9412 21.1116 76.9348H20.1722C20.0728 76.4741 19.7025 76.0857 19.0972 76.0857C18.3023 76.0857 17.7693 76.7451 17.7693 77.793C17.7693 78.8679 18.2933 79.5273 19.0972 79.5273C19.6392 79.5273 20.0547 79.2292 20.1722 78.6963H21.1116C21.0032 79.6448 20.2535 80.3494 19.0972 80.3494ZM23.9166 80.3494C22.5255 80.3494 21.6222 79.3376 21.6222 77.8201C21.6222 76.2935 22.5255 75.2817 23.9166 75.2817C25.2987 75.2817 26.202 76.2935 26.202 77.8201C26.202 79.3376 25.2987 80.3494 23.9166 80.3494ZM23.9166 79.5454C24.8019 79.5454 25.2264 78.7595 25.2264 77.8201C25.2264 76.8806 24.8019 76.0767 23.9166 76.0767C23.0133 76.0767 22.5887 76.8806 22.5887 77.8201C22.5887 78.7595 23.0133 79.5454 23.9166 79.5454ZM27.9321 77.3413V80.25H26.9655V75.345H27.8959V76.1489H27.9501C28.185 75.625 28.6637 75.2817 29.3954 75.2817C30.4072 75.2817 31.0666 75.9141 31.0666 77.1335V80.25H30.1091V77.251C30.1091 76.5374 29.7206 76.1128 29.0702 76.1128C28.4108 76.1128 27.9321 76.5554 27.9321 77.3413ZM32.6882 80.3132C32.3359 80.3132 32.0378 80.0242 32.0469 79.6719C32.0378 79.3196 32.3359 79.0305 32.6882 79.0305C33.0315 79.0305 33.3296 79.3196 33.3296 79.6719C33.3296 80.0242 33.0315 80.3132 32.6882 80.3132ZM32.6882 76.7451C32.3359 76.7451 32.0378 76.4561 32.0469 76.1038C32.0378 75.7515 32.3359 75.4624 32.6882 75.4624C33.0315 75.4624 33.3296 75.7515 33.3296 76.1038C33.3296 76.4561 33.0315 76.7451 32.6882 76.7451ZM16.1387 84.71V91.25H15.145V84.71H16.1387ZM19.2779 91.3494C17.8506 91.3494 16.9835 90.2925 16.9835 88.8201C16.9835 87.3206 17.8777 86.2817 19.2598 86.2817C20.3799 86.2817 21.1929 86.9412 21.2923 87.9348H20.3528C20.2535 87.4741 19.8831 87.0857 19.2779 87.0857C18.483 87.0857 17.95 87.7451 17.95 88.793C17.95 89.8679 18.4739 90.5273 19.2779 90.5273C19.8199 90.5273 20.2354 90.2292 20.3528 89.6963H21.2923C21.1839 90.6448 20.4341 91.3494 19.2779 91.3494ZM24.0973 91.3494C22.7062 91.3494 21.8029 90.3376 21.8029 88.8201C21.8029 87.2935 22.7062 86.2817 24.0973 86.2817C25.4794 86.2817 26.3827 87.2935 26.3827 88.8201C26.3827 90.3376 25.4794 91.3494 24.0973 91.3494ZM24.0973 90.5454C24.9825 90.5454 25.4071 89.7595 25.4071 88.8201C25.4071 87.8806 24.9825 87.0767 24.0973 87.0767C23.194 87.0767 22.7694 87.8806 22.7694 88.8201C22.7694 89.7595 23.194 90.5454 24.0973 90.5454ZM28.1127 88.3413V91.25H27.1462V86.345H28.0766V87.1489H28.1308C28.3657 86.625 28.8444 86.2817 29.5761 86.2817C30.5878 86.2817 31.2472 86.9141 31.2472 88.1335V91.25H30.2897V88.251C30.2897 87.5374 29.9013 87.1128 29.2509 87.1128C28.5915 87.1128 28.1127 87.5554 28.1127 88.3413ZM32.4353 88.7568C32.4443 87.0586 32.9231 85.6404 33.7722 84.4299H34.6575C34.0342 85.3242 33.438 87.1489 33.438 88.7568C33.438 90.3738 34.0342 92.1895 34.6575 93.0928H33.7722C32.9231 91.8823 32.4443 90.4641 32.4353 88.7568ZM36.4327 84.71V91.25H35.439V84.71H36.4327ZM39.5719 91.3494C38.1446 91.3494 37.2775 90.2925 37.2775 88.8201C37.2775 87.3206 38.1717 86.2817 39.5538 86.2817C40.6739 86.2817 41.4869 86.9412 41.5863 87.9348H40.6468C40.5475 87.4741 40.1771 87.0857 39.5719 87.0857C38.777 87.0857 38.244 87.7451 38.244 88.793C38.244 89.8679 38.7679 90.5273 39.5719 90.5273C40.1139 90.5273 40.5294 90.2292 40.6468 89.6963H41.5863C41.4779 90.6448 40.7281 91.3494 39.5719 91.3494ZM44.3913 91.3494C43.0002 91.3494 42.0968 90.3376 42.0968 88.8201C42.0968 87.2935 43.0002 86.2817 44.3913 86.2817C45.7734 86.2817 46.6767 87.2935 46.6767 88.8201C46.6767 90.3376 45.7734 91.3494 44.3913 91.3494ZM44.3913 90.5454C45.2765 90.5454 45.7011 89.7595 45.7011 88.8201C45.7011 87.8806 45.2765 87.0767 44.3913 87.0767C43.488 87.0767 43.0634 87.8806 43.0634 88.8201C43.0634 89.7595 43.488 90.5454 44.3913 90.5454ZM48.4067 88.3413V91.25H47.4402V86.345H48.3706V87.1489H48.4248C48.6596 86.625 49.1384 86.2817 49.8701 86.2817C50.8818 86.2817 51.5412 86.9141 51.5412 88.1335V91.25H50.5837V88.251C50.5837 87.5374 50.1953 87.1128 49.5449 87.1128C48.8855 87.1128 48.4067 87.5554 48.4067 88.3413ZM55.2857 87.6819C55.1954 87.2935 54.8882 87.0405 54.3553 87.0405C53.8042 87.0405 53.4068 87.3296 53.4158 87.7C53.4068 87.989 53.6416 88.1968 54.1836 88.3232L54.9605 88.5039C55.8638 88.7026 56.2974 89.1362 56.3064 89.8318C56.2974 90.717 55.5567 91.3494 54.3011 91.3494C53.1267 91.3494 52.4222 90.8254 52.3047 89.9131H53.2893C53.3706 90.3557 53.7139 90.5725 54.292 90.5725C54.9153 90.5725 55.3128 90.3196 55.3218 89.9041C55.3128 89.5879 55.0779 89.3801 54.563 89.2627L53.7952 89.1001C52.91 88.9014 52.4493 88.4316 52.4493 87.7542C52.4493 86.8779 53.208 86.2817 54.3462 86.2817C55.4392 86.2817 56.1167 86.8418 56.2161 87.6819H55.2857ZM57.6932 91.3132C57.3409 91.3132 57.0428 91.0242 57.0519 90.6719C57.0428 90.3196 57.3409 90.0305 57.6932 90.0305C58.0365 90.0305 58.3346 90.3196 58.3346 90.6719C58.3346 91.0242 58.0365 91.3132 57.6932 91.3132ZM60.2814 88.3413V91.25H59.3149V86.345H60.2453V87.1489H60.2995C60.5343 86.625 61.0131 86.2817 61.7448 86.2817C62.7565 86.2817 63.4159 86.9141 63.4159 88.1335V91.25H62.4584V88.251C62.4584 87.5374 62.07 87.1128 61.4196 87.1128C60.7602 87.1128 60.2814 87.5554 60.2814 88.3413ZM66.4829 91.3494C65.0918 91.3494 64.1884 90.3376 64.1884 88.8201C64.1884 87.2935 65.0918 86.2817 66.4829 86.2817C67.865 86.2817 68.7683 87.2935 68.7683 88.8201C68.7683 90.3376 67.865 91.3494 66.4829 91.3494ZM66.4829 90.5454C67.3681 90.5454 67.7927 89.7595 67.7927 88.8201C67.7927 87.8806 67.3681 87.0767 66.4829 87.0767C65.5796 87.0767 65.155 87.8806 65.155 88.8201C65.155 89.7595 65.5796 90.5454 66.4829 90.5454ZM71.8262 86.345V87.1128H70.8235V89.8047C70.8235 90.3557 71.1035 90.4551 71.4107 90.4641C71.5462 90.4641 71.763 90.446 71.8985 90.437V91.2771C71.763 91.2952 71.5552 91.3132 71.2932 91.3132C70.5345 91.3132 69.857 90.8977 69.866 90.0034V87.1128H69.1433V86.345H69.866V85.1707H70.8235V86.345H71.8262ZM72.5807 91.25V86.345H73.5472V91.25H72.5807ZM73.0684 85.5862C72.7342 85.5862 72.4542 85.3333 72.4542 85.0171C72.4542 84.7009 72.7342 84.448 73.0684 84.448C73.3936 84.448 73.6737 84.7009 73.6737 85.0171C73.6737 85.3333 73.3936 85.5862 73.0684 85.5862ZM76.8761 86.345V87.1128H75.8192V91.25H74.8527V87.1128H74.0939V86.345H74.8527V85.7759C74.8527 84.8997 75.4127 84.4028 76.3161 84.4028C76.5509 84.4028 76.7858 84.4299 76.9755 84.4661V85.27C76.7948 85.2429 76.6593 85.2339 76.569 85.2339C76.0541 85.2339 75.8192 85.4417 75.8192 85.9204V86.345H76.8761ZM77.5673 91.25V86.345H78.5339V91.25H77.5673ZM78.0551 85.5862C77.7209 85.5862 77.4409 85.3333 77.4409 85.0171C77.4409 84.7009 77.7209 84.448 78.0551 84.448C78.3803 84.448 78.6604 84.7009 78.6604 85.0171C78.6604 85.3333 78.3803 85.5862 78.0551 85.5862ZM81.6009 91.3494C80.1736 91.3494 79.3064 90.2925 79.3064 88.8201C79.3064 87.3206 80.2007 86.2817 81.5828 86.2817C82.7029 86.2817 83.5159 86.9412 83.6153 87.9348H82.6758C82.5764 87.4741 82.2061 87.0857 81.6009 87.0857C80.8059 87.0857 80.273 87.7451 80.273 88.793C80.273 89.8679 80.7969 90.5273 81.6009 90.5273C82.1428 90.5273 82.5584 90.2292 82.6758 89.6963H83.6153C83.5069 90.6448 82.7571 91.3494 81.6009 91.3494ZM84.1168 89.8679C84.1168 88.7478 85.0653 88.4587 85.9505 88.3955C86.2757 88.3729 87.0119 88.3323 87.2423 88.3232L87.2332 87.9348C87.2332 87.3838 86.899 87.0586 86.2396 87.0586C85.6705 87.0586 85.3272 87.3206 85.2279 87.6819H84.2703C84.3607 86.8689 85.1195 86.2817 86.2757 86.2817C87.0526 86.2817 88.1998 86.5708 88.1998 87.989V91.25H87.2603V90.5815H87.2242C87.0345 90.9519 86.5828 91.3584 85.7699 91.3584C84.8394 91.3584 84.1168 90.8254 84.1168 89.8679ZM85.0562 89.877C85.0562 90.3467 85.4447 90.5906 85.9866 90.5906C86.7725 90.5906 87.2423 90.0667 87.2423 89.4795V89.0278C87.0164 89.0459 86.3118 89.0956 86.086 89.1091C85.4537 89.1543 85.0562 89.3892 85.0562 89.877ZM91.4745 86.345V87.1128H90.4718V89.8047C90.4718 90.3557 90.7518 90.4551 91.059 90.4641C91.1945 90.4641 91.4113 90.446 91.5468 90.437V91.2771C91.4113 91.2952 91.2035 91.3132 90.9415 91.3132C90.1828 91.3132 89.5053 90.8977 89.5143 90.0034V87.1128H88.7916V86.345H89.5143V85.1707H90.4718V86.345H91.4745ZM92.229 91.25V86.345H93.1955V91.25H92.229ZM92.7168 85.5862C92.3825 85.5862 92.1025 85.3333 92.1025 85.0171C92.1025 84.7009 92.3825 84.448 92.7168 84.448C93.0419 84.448 93.322 84.7009 93.322 85.0171C93.322 85.3333 93.0419 85.5862 92.7168 85.5862ZM96.2625 91.3494C94.8713 91.3494 93.968 90.3376 93.968 88.8201C93.968 87.2935 94.8713 86.2817 96.2625 86.2817C97.6445 86.2817 98.5479 87.2935 98.5479 88.8201C98.5479 90.3376 97.6445 91.3494 96.2625 91.3494ZM96.2625 90.5454C97.1477 90.5454 97.5723 89.7595 97.5723 88.8201C97.5723 87.8806 97.1477 87.0767 96.2625 87.0767C95.3591 87.0767 94.9346 87.8806 94.9346 88.8201C94.9346 89.7595 95.3591 90.5454 96.2625 90.5454ZM100.278 88.3413V91.25H99.3113V86.345H100.242V87.1489H100.296C100.531 86.625 101.01 86.2817 101.741 86.2817C102.753 86.2817 103.412 86.9141 103.412 88.1335V91.25H102.455V88.251C102.455 87.5374 102.066 87.1128 101.416 87.1128C100.757 87.1128 100.278 87.5554 100.278 88.3413ZM107.157 87.6819C107.067 87.2935 106.759 87.0405 106.226 87.0405C105.675 87.0405 105.278 87.3296 105.287 87.7C105.278 87.989 105.513 88.1968 106.055 88.3232L106.832 88.5039C107.735 88.7026 108.169 89.1362 108.178 89.8318C108.169 90.717 107.428 91.3494 106.172 91.3494C104.998 91.3494 104.293 90.8254 104.176 89.9131H105.161C105.242 90.3557 105.585 90.5725 106.163 90.5725C106.787 90.5725 107.184 90.3196 107.193 89.9041C107.184 89.5879 106.949 89.3801 106.434 89.2627L105.666 89.1001C104.781 88.9014 104.32 88.4316 104.32 87.7542C104.32 86.8779 105.079 86.2817 106.217 86.2817C107.31 86.2817 107.988 86.8418 108.087 87.6819H107.157ZM110.865 88.7568C110.856 90.4641 110.377 91.8823 109.528 93.0928H108.643C109.266 92.1895 109.862 90.3738 109.862 88.7568C109.862 87.1489 109.266 85.3242 108.643 84.4299H109.528C110.377 85.6404 110.856 87.0586 110.865 88.7568ZM113.219 90.6267L112.496 93.1199H111.728L112.207 90.6267H113.219ZM17.1414 102.349C15.7502 102.349 14.8469 101.338 14.8469 99.8201C14.8469 98.2935 15.7502 97.2817 17.1414 97.2817C18.5234 97.2817 19.4268 98.2935 19.4268 99.8201C19.4268 101.338 18.5234 102.349 17.1414 102.349ZM17.1414 101.545C18.0266 101.545 18.4512 100.76 18.4512 99.8201C18.4512 98.8806 18.0266 98.0767 17.1414 98.0767C16.238 98.0767 15.8135 98.8806 15.8135 99.8201C15.8135 100.76 16.238 101.545 17.1414 101.545ZM21.1568 99.3413V102.25H20.1902V97.345H21.1207V98.1489H21.1749C21.4097 97.625 21.8885 97.2817 22.6202 97.2817C23.6319 97.2817 24.2913 97.9141 24.2913 99.1335V102.25H23.3338V99.251C23.3338 98.5374 22.9454 98.1128 22.295 98.1128C21.6356 98.1128 21.1568 98.5554 21.1568 99.3413ZM25.3619 102.25V95.71H27.6925C29.2101 95.71 29.9598 96.6223 29.9598 97.8328C29.9598 99.0342 29.2101 99.9556 27.6925 99.9556H26.3556V102.25H25.3619ZM26.3556 99.1064H27.5931C28.5597 99.1064 28.9571 98.5645 28.9571 97.8328C28.9571 97.092 28.5597 96.5591 27.5931 96.5591H26.3556V99.1064ZM30.7414 102.25V97.345H31.6718V98.1218H31.726C31.9067 97.5979 32.3945 97.2727 32.9726 97.2727C33.09 97.2727 33.2797 97.2817 33.3791 97.2908V98.2122C33.2978 98.1941 33.072 98.158 32.8732 98.158C32.2048 98.158 31.7079 98.6187 31.7079 99.26V102.25H30.7414ZM35.8679 102.349C34.4226 102.349 33.5373 101.356 33.5373 99.8291C33.5373 98.3206 34.4407 97.2817 35.8047 97.2817C36.9248 97.2817 37.9817 97.9773 37.9817 99.7478V100.091H34.4949C34.522 101.021 35.0685 101.554 35.8769 101.554C36.428 101.554 36.7803 101.32 36.9429 101.021H37.9184C37.7017 101.816 36.9429 102.349 35.8679 102.349ZM34.5039 99.3684H37.0332C37.0332 98.6187 36.5544 98.0767 35.8137 98.0767C35.0414 98.0767 34.54 98.6729 34.5039 99.3684ZM41.5093 98.6819C41.419 98.2935 41.1119 98.0405 40.5789 98.0405C40.0279 98.0405 39.6304 98.3296 39.6395 98.7C39.6304 98.989 39.8653 99.1968 40.4073 99.3232L41.1841 99.5039C42.0875 99.7026 42.521 100.136 42.5301 100.832C42.521 101.717 41.7803 102.349 40.5247 102.349C39.3504 102.349 38.6458 101.825 38.5284 100.913H39.513C39.5943 101.356 39.9375 101.573 40.5157 101.573C41.139 101.573 41.5364 101.32 41.5455 100.904C41.5364 100.588 41.3016 100.38 40.7867 100.263L40.0188 100.1C39.1336 99.9014 38.6729 99.4316 38.6729 98.7542C38.6729 97.8779 39.4317 97.2817 40.5699 97.2817C41.6629 97.2817 42.3404 97.8418 42.4397 98.6819H41.5093ZM46.0397 98.6819C45.9493 98.2935 45.6422 98.0405 45.1092 98.0405C44.5582 98.0405 44.1608 98.3296 44.1698 98.7C44.1608 98.989 44.3956 99.1968 44.9376 99.3232L45.7145 99.5039C46.6178 99.7026 47.0514 100.136 47.0604 100.832C47.0514 101.717 46.3107 102.349 45.055 102.349C43.8807 102.349 43.1761 101.825 43.0587 100.913H44.0433C44.1246 101.356 44.4679 101.573 45.046 101.573C45.6693 101.573 46.0668 101.32 46.0758 100.904C46.0668 100.588 45.8319 100.38 45.317 100.263L44.5492 100.1C43.6639 99.9014 43.2032 99.4316 43.2032 98.7542C43.2032 97.8779 43.962 97.2817 45.1002 97.2817C46.1932 97.2817 46.8707 97.8418 46.9701 98.6819H46.0397ZM49.9286 102.349C48.4833 102.349 47.5981 101.356 47.5981 99.8291C47.5981 98.3206 48.5014 97.2817 49.8654 97.2817C50.9855 97.2817 52.0424 97.9773 52.0424 99.7478V100.091H48.5556C48.5827 101.021 49.1292 101.554 49.9377 101.554C50.4887 101.554 50.841 101.32 51.0036 101.021H51.9792C51.7624 101.816 51.0036 102.349 49.9286 102.349ZM48.5646 99.3684H51.0939C51.0939 98.6187 50.6152 98.0767 49.8744 98.0767C49.1021 98.0767 48.6008 98.6729 48.5646 99.3684ZM54.6487 102.349C53.4653 102.349 52.5981 101.392 52.5981 99.811C52.5981 98.2122 53.4743 97.2817 54.6577 97.2817C55.57 97.2817 55.9043 97.8328 56.0759 98.1399H56.1211V95.71H57.0876V102.25H56.1482V101.482H56.0759C55.8952 101.807 55.5429 102.349 54.6487 102.349ZM54.8655 101.527C55.6875 101.527 56.1482 100.823 56.1482 99.793C56.1482 98.7722 55.6965 98.1038 54.8655 98.1038C54.0073 98.1038 53.5827 98.8264 53.5827 99.793C53.5827 100.778 54.0254 101.527 54.8655 101.527ZM58.7906 102.313C58.4383 102.313 58.1402 102.024 58.1492 101.672C58.1402 101.32 58.4383 101.031 58.7906 101.031C59.1338 101.031 59.4319 101.32 59.4319 101.672C59.4319 102.024 59.1338 102.313 58.7906 102.313ZM58.7906 98.7451C58.4383 98.7451 58.1402 98.4561 58.1492 98.1038C58.1402 97.7515 58.4383 97.4624 58.7906 97.4624C59.1338 97.4624 59.4319 97.7515 59.4319 98.1038C59.4319 98.4561 59.1338 98.7451 58.7906 98.7451ZM62.6842 99.7568C62.6933 98.0586 63.172 96.6404 64.0212 95.4299H64.9064C64.2831 96.3242 63.6869 98.1489 63.6869 99.7568C63.6869 101.374 64.2831 103.189 64.9064 104.093H64.0212C63.172 102.882 62.6933 101.464 62.6842 99.7568ZM67.5398 99.7568C67.5307 101.464 67.052 102.882 66.2029 104.093H65.3176C65.9409 103.189 66.5371 101.374 66.5371 99.7568C66.5371 98.1489 65.9409 96.3242 65.3176 95.4299H66.2029C67.052 96.6404 67.5307 98.0586 67.5398 99.7568ZM70.4759 99.2961C71.1895 99.2961 71.4334 99.0251 71.4334 98.3477V97.1643C71.4334 95.8545 72.0206 95.4299 73.2943 95.4299V96.1887C72.5445 96.1887 72.3368 96.5139 72.3368 97.2095V98.6277C72.3368 99.1381 72.1606 99.5446 71.3612 99.7026V99.811C72.1606 99.9691 72.3368 100.376 72.3368 100.886V102.304C72.3368 103.009 72.5445 103.325 73.2943 103.325V104.093C72.0206 104.093 71.4334 103.668 71.4334 102.349V101.175C71.4334 100.498 71.1895 100.218 70.4759 100.218V99.2961ZM76.3793 100.218C75.6657 100.218 75.4218 100.498 75.4218 101.175V102.349C75.4218 103.668 74.8346 104.093 73.5609 104.093V103.325C74.3107 103.325 74.5185 103.009 74.5185 102.304V100.886C74.5185 100.376 74.6946 99.9691 75.494 99.811V99.7026C74.6946 99.5446 74.5185 99.1381 74.5185 98.6277V97.2095C74.5185 96.5139 74.3107 96.1887 73.5609 96.1887V95.4299C74.8346 95.4299 75.4218 95.8545 75.4218 97.1643V98.3477C75.4218 99.0251 75.6657 99.2961 76.3793 99.2961V100.218ZM78.2087 101.627L77.486 104.12H76.7182L77.197 101.627H78.2087ZM85.3048 99.7568C85.2958 101.464 84.817 102.882 83.9679 104.093H83.0827C83.7059 103.189 84.3021 101.374 84.3021 99.7568C84.3021 98.1489 83.7059 96.3242 83.0827 95.4299H83.9679C84.817 96.6404 85.2958 98.0586 85.3048 99.7568ZM87.6582 101.627L86.9355 104.12H86.1677L86.6464 101.627H87.6582ZM90.7161 99.7568C90.707 101.464 90.2283 102.882 89.3792 104.093H88.4939C89.1172 103.189 89.7134 101.374 89.7134 99.7568C89.7134 98.1489 89.1172 96.3242 88.4939 95.4299H89.3792C90.2283 96.6404 90.707 98.0586 90.7161 99.7568Z" fill="white"/>
<rect x="97.3" y="85.3" width="100.825" height="76.775" rx="12.95" fill="#444444" stroke="#E0E0E0" stroke-width="7.4"/>
<rect x="109" y="117" width="78" height="14.6667" rx="2.70833" fill="#337AFF"/>
<path d="M134.214 122.921C134.214 123.134 134.25 123.344 134.322 123.55C134.395 123.754 134.504 123.938 134.65 124.102C134.795 124.266 134.971 124.391 135.179 124.479L134.887 124.902C134.665 124.809 134.476 124.672 134.318 124.491C134.16 124.311 134.035 124.1 133.945 123.859C133.856 124.121 133.731 124.352 133.571 124.55C133.41 124.748 133.219 124.897 132.999 124.999L132.69 124.572C132.896 124.48 133.072 124.347 133.217 124.172C133.364 123.997 133.474 123.801 133.547 123.583C133.622 123.365 133.66 123.144 133.66 122.921V122.684H132.843V122.244H135.018V122.684H134.214V122.921ZM135.945 125.723H135.399V121.872H135.945V125.723ZM139.441 122.354C139.441 122.56 139.436 122.742 139.427 122.9C139.417 123.058 139.391 123.234 139.35 123.429H139.86V123.865H136.335V123.429H138.807C138.845 123.256 138.87 123.095 138.883 122.949C138.895 122.801 138.902 122.643 138.904 122.477H136.767V122.045H139.441V122.354ZM139.429 125.68H136.754V124.271H139.429V125.68ZM137.283 125.249H138.891V124.694H137.283V125.249ZM143.857 123.311H144.424V123.763H143.857V125.723H143.316V121.872H143.857V123.311ZM141.479 123.116H142.279V122.176H142.816V124.83H140.942V122.176H141.479V123.116ZM142.279 124.394V123.535H141.479V124.394H142.279ZM147.959 125.295H144.434V124.851H145.919V124.271H144.84V122.976H147.02V122.553H144.836V122.121H147.553V123.399H145.382V123.831H147.642V124.271H146.457V124.851H147.959V125.295ZM150.412 122.921C150.412 123.134 150.448 123.344 150.52 123.55C150.593 123.754 150.702 123.938 150.848 124.102C150.993 124.266 151.169 124.391 151.377 124.479L151.085 124.902C150.863 124.809 150.673 124.672 150.515 124.491C150.357 124.311 150.233 124.1 150.143 123.859C150.054 124.121 149.929 124.352 149.769 124.55C149.608 124.748 149.417 124.897 149.197 124.999L148.888 124.572C149.094 124.48 149.27 124.347 149.415 124.172C149.562 123.997 149.672 123.801 149.745 123.583C149.82 123.365 149.857 123.144 149.857 122.921V122.684H149.041V122.244H151.216V122.684H150.412V122.921ZM152.143 125.723H151.597V121.872H152.143V125.723ZM155.796 124.783H155.254V124.479H154.518V124.11H155.254V121.876H155.796V124.783ZM155.88 125.655H153.011V124.504H153.549V123.992C153.286 124.003 152.965 124.009 152.584 124.009L152.52 123.581C153.017 123.579 153.463 123.57 153.86 123.556C154.256 123.542 154.633 123.512 154.992 123.467L155.021 123.852C154.728 123.902 154.418 123.938 154.09 123.962V124.694H153.549V125.223H155.88V125.655ZM153.773 122.007C153.958 122.006 154.123 122.034 154.268 122.092C154.413 122.15 154.527 122.231 154.609 122.337C154.692 122.442 154.734 122.562 154.734 122.697C154.734 122.831 154.693 122.949 154.611 123.052C154.529 123.155 154.415 123.235 154.268 123.291C154.123 123.347 153.958 123.374 153.773 123.374C153.584 123.374 153.416 123.347 153.269 123.291C153.123 123.235 153.008 123.156 152.927 123.055C152.845 122.952 152.804 122.832 152.804 122.697C152.804 122.562 152.844 122.442 152.925 122.337C153.006 122.231 153.121 122.15 153.267 122.092C153.415 122.034 153.584 122.006 153.773 122.007ZM153.773 122.401C153.633 122.401 153.522 122.427 153.439 122.479C153.355 122.531 153.315 122.604 153.316 122.697C153.315 122.789 153.355 122.86 153.437 122.911C153.52 122.96 153.632 122.985 153.773 122.985C153.906 122.985 154.013 122.959 154.095 122.909C154.178 122.858 154.22 122.787 154.222 122.697C154.22 122.604 154.178 122.531 154.095 122.479C154.013 122.427 153.906 122.401 153.773 122.401ZM159.187 123.378H159.754V123.823H159.187V125.723H158.653V121.872H159.187V123.378ZM158.391 122.879H156.127V122.447H156.999V121.931H157.54V122.447H158.391V122.879ZM157.27 123.095C157.456 123.095 157.623 123.134 157.771 123.213C157.921 123.291 158.038 123.399 158.122 123.539C158.208 123.679 158.251 123.837 158.251 124.013C158.251 124.189 158.208 124.347 158.122 124.487C158.038 124.627 157.921 124.736 157.771 124.815C157.623 124.893 157.456 124.931 157.27 124.931C157.082 124.931 156.913 124.893 156.764 124.815C156.614 124.736 156.497 124.627 156.411 124.487C156.326 124.347 156.284 124.189 156.284 124.013C156.284 123.837 156.326 123.679 156.411 123.539C156.497 123.399 156.614 123.291 156.764 123.213C156.913 123.134 157.082 123.095 157.27 123.095ZM157.27 123.531C157.179 123.532 157.098 123.552 157.026 123.592C156.956 123.631 156.9 123.687 156.859 123.759C156.82 123.831 156.8 123.916 156.8 124.013C156.8 124.112 156.82 124.197 156.859 124.269C156.9 124.341 156.956 124.396 157.026 124.434C157.098 124.471 157.179 124.488 157.27 124.487C157.36 124.488 157.44 124.471 157.511 124.434C157.581 124.396 157.636 124.341 157.676 124.269C157.715 124.197 157.735 124.112 157.735 124.013C157.735 123.916 157.715 123.831 157.676 123.759C157.636 123.687 157.581 123.631 157.511 123.592C157.44 123.552 157.36 123.532 157.27 123.531ZM163.001 125.723H162.455V121.872H163.001V125.723ZM161.845 122.274C161.845 122.686 161.79 123.06 161.678 123.397C161.568 123.734 161.382 124.044 161.12 124.326C160.857 124.607 160.504 124.852 160.06 125.062L159.776 124.631C160.105 124.476 160.376 124.303 160.589 124.112C160.803 123.922 160.967 123.711 161.079 123.48C161.194 123.247 161.266 122.986 161.295 122.697H159.983V122.274H161.845Z" fill="white"/>
<mask id="path-7-outside-1_1_81" maskUnits="userSpaceOnUse" x="160.552" y="119.977" width="30.8476" height="31.1098" fill="black">
<rect fill="white" x="160.552" y="119.977" width="30.8476" height="31.1098"/>
<path fill-rule="evenodd" clip-rule="evenodd" d="M181.785 134.443L172.721 131.086L174.346 140.615L176.348 138.954L179.553 142.818L182.989 139.967L179.784 136.103L181.785 134.443Z"/>
</mask>
<path fill-rule="evenodd" clip-rule="evenodd" d="M181.785 134.443L172.721 131.086L174.346 140.615L176.348 138.954L179.553 142.818L182.989 139.967L179.784 136.103L181.785 134.443Z" fill="white"/>
<path d="M172.721 131.086L173.763 128.273L168.89 126.468L169.764 131.591L172.721 131.086ZM181.785 134.443L183.701 136.751L187.7 133.434L182.827 131.629L181.785 134.443ZM174.346 140.615L171.389 141.119L172.263 146.241L176.262 142.923L174.346 140.615ZM176.348 138.954L178.656 137.039L176.741 134.73L174.432 136.645L176.348 138.954ZM179.553 142.818L177.245 144.734L179.16 147.042L181.469 145.127L179.553 142.818ZM182.989 139.967L184.905 142.276L187.214 140.361L185.298 138.052L182.989 139.967ZM179.784 136.103L177.868 133.795L175.559 135.71L177.475 138.019L179.784 136.103ZM171.679 133.899L180.744 137.256L182.827 131.629L173.763 128.273L171.679 133.899ZM177.304 140.11L175.678 130.582L169.764 131.591L171.389 141.119L177.304 140.11ZM174.432 136.645L172.431 138.306L176.262 142.923L178.263 141.263L174.432 136.645ZM181.862 140.903L178.656 137.039L174.039 140.87L177.245 144.734L181.862 140.903ZM181.074 137.659L177.638 140.509L181.469 145.127L184.905 142.276L181.074 137.659ZM177.475 138.019L180.681 141.883L185.298 138.052L182.092 134.188L177.475 138.019ZM179.87 132.134L177.868 133.795L181.699 138.412L183.701 136.751L179.87 132.134Z" fill="black" mask="url(#path-7-outside-1_1_81)"/>
</svg>
