<svg width="32" height="33" viewBox="0 0 32 33" fill="none" xmlns="http://www.w3.org/2000/svg">
<g clip-path="url(#clip0_103_1429)">
<path d="M16 32.4993C24.8366 32.4993 32 25.3358 32 16.4993C32 7.66271 24.8366 0.499268 16 0.499268C7.16344 0.499268 0 7.66271 0 16.4993C0 25.3358 7.16344 32.4993 16 32.4993Z" fill="#6C27B3"/>
<path d="M23.4194 8.80694C21.5077 9.04894 19.5144 9.0405 17.5084 8.8495C14.7071 8.634 10.6128 7.34106 9.10437 9.92694C6.68112 14.0667 7.87631 19.3666 8.441 24.0568L16.8621 32.4761C25.0113 32.0434 31.5424 25.5131 31.9765 17.3642L23.4194 8.80694Z" fill="#501A96"/>
<path d="M19.7017 7.34106H12.2983C9.28955 7.34106 6.8418 9.78881 6.8418 12.7976V20.201C6.8418 23.2096 9.28955 25.6576 12.2984 25.6576H19.7018C22.7104 25.6576 25.1584 23.2098 25.1584 20.201V12.7976C25.1583 9.78881 22.7105 7.34106 19.7017 7.34106ZM23.3157 20.2011C23.3157 22.1969 21.6977 23.8149 19.7018 23.8149H12.2984C10.3025 23.8149 8.68448 22.1969 8.68448 20.2011V12.7976C8.68448 10.8018 10.3025 9.18369 12.2984 9.18369H19.7018C21.6977 9.18369 23.3157 10.8018 23.3157 12.7976V20.2011Z" fill="white"/>
<path d="M16.0001 11.762C13.3879 11.762 11.2627 13.8872 11.2627 16.4993C11.2627 19.1113 13.3879 21.2365 16.0001 21.2365C18.6122 21.2365 20.7373 19.1115 20.7373 16.4993C20.7373 13.8872 18.6122 11.762 16.0001 11.762ZM16.0001 19.3939C14.4014 19.3939 13.1053 18.0981 13.1053 16.4993C13.1053 14.9006 14.4014 13.6046 16.0001 13.6046C17.5988 13.6046 18.8946 14.9005 18.8946 16.4993C18.8946 18.098 17.5988 19.3939 16.0001 19.3939Z" fill="white"/>
<path d="M21.8815 11.7977C21.8815 12.4245 21.3732 12.9329 20.7463 12.9329C20.1194 12.9329 19.6111 12.4245 19.6111 11.7977C19.6111 11.1707 20.1194 10.6625 20.7463 10.6625C21.3733 10.6625 21.8815 11.1706 21.8815 11.7977Z" fill="#D1D1D1"/>
<path d="M19.7017 7.34106H15.9641V9.18369H19.7017C21.6976 9.18369 23.3156 10.8018 23.3156 12.7976V20.2011C23.3156 22.1969 21.6976 23.8149 19.7017 23.8149H15.9641V25.6576H19.7017C22.7104 25.6576 25.1582 23.2098 25.1582 20.201V12.7976C25.1582 9.78881 22.7104 7.34106 19.7017 7.34106Z" fill="#D1D1D1"/>
<path d="M16 11.762C15.9879 11.762 15.9762 11.7628 15.9641 11.7628V13.6055C15.976 13.6053 15.9879 13.6046 16 13.6046C17.5987 13.6046 18.8945 14.9005 18.8945 16.4993C18.8945 18.098 17.5987 19.3939 16 19.3939C15.9879 19.3939 15.976 19.3932 15.9641 19.393V21.2357C15.9762 21.2358 15.9879 21.2365 16 21.2365C18.6121 21.2365 20.7372 19.1114 20.7372 16.4993C20.7372 13.8872 18.6121 11.762 16 11.762Z" fill="#D1D1D1"/>
</g>
<defs>
<clipPath id="clip0_103_1429">
<rect width="32" height="32" fill="white" transform="translate(0 0.499268)"/>
</clipPath>
</defs>
</svg>
