<svg width="32" height="33" viewBox="0 0 32 33" fill="none" xmlns="http://www.w3.org/2000/svg">
<g clip-path="url(#clip0_103_1439)">
<path d="M16 32.4993C24.8366 32.4993 32 25.3358 32 16.4993C32 7.66271 24.8366 0.499268 16 0.499268C7.16344 0.499268 0 7.66271 0 16.4993C0 25.3358 7.16344 32.4993 16 32.4993Z" fill="#D22215"/>
<path d="M24.0536 11.1455C23.5738 11.2919 23.0735 11.4178 22.5724 11.5431C19.0168 12.2973 14.2761 10.2501 12.229 13.5902C10.5217 16.2461 9.98259 19.5694 8.04041 21.9441L18.4143 32.3181C25.3187 31.2731 30.7752 25.8158 31.8191 18.9111L24.0536 11.1455Z" fill="#A81411"/>
<path d="M21.353 10.02H10.6469C8.54638 10.02 6.84363 11.7228 6.84363 13.8233V19.1753C6.84363 21.2758 8.54644 22.9785 10.6469 22.9785H21.353C23.4535 22.9785 25.1563 21.2757 25.1563 19.1753V13.8233C25.1563 11.7228 23.4534 10.02 21.353 10.02ZM18.7808 16.7596L13.7733 19.1479C13.6398 19.2116 13.4856 19.1144 13.4856 18.9666V14.0407C13.4856 13.8907 13.6439 13.7935 13.7775 13.8613L18.785 16.3989C18.9341 16.4743 18.9314 16.6879 18.7808 16.7596Z" fill="white"/>
<path d="M21.353 10.02H15.8922V14.9328L18.7851 16.3988C18.9341 16.4743 18.9315 16.6878 18.7808 16.7596L15.8922 18.1373V22.9785H21.353C23.4535 22.9785 25.1563 21.2757 25.1563 19.1753V13.8233C25.1563 11.7228 23.4535 10.02 21.353 10.02Z" fill="#D1D1D1"/>
</g>
<defs>
<clipPath id="clip0_103_1439">
<rect width="32" height="32" fill="white" transform="translate(0 0.499268)"/>
</clipPath>
</defs>
</svg>
